<svg viewBox="0 0 960 300" width="960" height="300" xmlns="http://www.w3.org/2000/svg" xmlns:xlink="http://www.w3.org/1999/xlink" version="1.1">
    <path d="M0 172L14.5 174.2C29 176.3 58 180.7 87.2 173.7C116.3 166.7 145.7 148.3 174.8 147.5C204 146.7 233 163.3 262 165.2C291 167 320 154 349 148.5C378 143 407 145 436.2 149.8C465.3 154.7 494.7 162.3 523.8 160.3C553 158.3 582 146.7 611 144.7C640 142.7 669 150.3 698 157.2C727 164 756 170 785.2 164.2C814.3 158.3 843.7 140.7 872.8 142C902 143.3 931 163.7 945.5 173.8L960 184L960 301L945.5 301C931 301 902 301 872.8 301C843.7 301 814.3 301 785.2 301C756 301 727 301 698 301C669 301 640 301 611 301C582 301 553 301 523.8 301C494.7 301 465.3 301 436.2 301C407 301 378 301 349 301C320 301 291 301 262 301C233 301 204 301 174.8 301C145.7 301 116.3 301 87.2 301C58 301 29 301 14.5 301L0 301Z"
          fill="#caf0f8"></path>
    <path d="M0 178L14.5 175.7C29 173.3 58 168.7 87.2 173.7C116.3 178.7 145.7 193.3 174.8 191.7C204 190 233 172 262 167.2C291 162.3 320 170.7 349 174.8C378 179 407 179 436.2 183.5C465.3 188 494.7 197 523.8 194.7C553 192.3 582 178.7 611 174.5C640 170.3 669 175.7 698 176.8C727 178 756 175 785.2 169.3C814.3 163.7 843.7 155.3 872.8 156.8C902 158.3 931 169.7 945.5 175.3L960 181L960 301L945.5 301C931 301 902 301 872.8 301C843.7 301 814.3 301 785.2 301C756 301 727 301 698 301C669 301 640 301 611 301C582 301 553 301 523.8 301C494.7 301 465.3 301 436.2 301C407 301 378 301 349 301C320 301 291 301 262 301C233 301 204 301 174.8 301C145.7 301 116.3 301 87.2 301C58 301 29 301 14.5 301L0 301Z"
          fill="#92c3d6"></path>
    <path d="M0 225L14.5 223.5C29 222 58 219 87.2 220C116.3 221 145.7 226 174.8 220C204 214 233 197 262 193.5C291 190 320 200 349 209.5C378 219 407 228 436.2 227.2C465.3 226.3 494.7 215.7 523.8 213C553 210.3 582 215.7 611 216.7C640 217.7 669 214.3 698 214C727 213.7 756 216.3 785.2 218.8C814.3 221.3 843.7 223.7 872.8 217.7C902 211.7 931 197.3 945.5 190.2L960 183L960 301L945.5 301C931 301 902 301 872.8 301C843.7 301 814.3 301 785.2 301C756 301 727 301 698 301C669 301 640 301 611 301C582 301 553 301 523.8 301C494.7 301 465.3 301 436.2 301C407 301 378 301 349 301C320 301 291 301 262 301C233 301 204 301 174.8 301C145.7 301 116.3 301 87.2 301C58 301 29 301 14.5 301L0 301Z"
          fill="#5f96b6"></path>
    <path d="M0 227L14.5 232.5C29 238 58 249 87.2 254.5C116.3 260 145.7 260 174.8 256.7C204 253.3 233 246.7 262 241.7C291 236.7 320 233.3 349 228.7C378 224 407 218 436.2 216.8C465.3 215.7 494.7 219.3 523.8 222.2C553 225 582 227 611 227.7C640 228.3 669 227.7 698 226.7C727 225.7 756 224.3 785.2 227.7C814.3 231 843.7 239 872.8 239.5C902 240 931 233 945.5 229.5L960 226L960 301L945.5 301C931 301 902 301 872.8 301C843.7 301 814.3 301 785.2 301C756 301 727 301 698 301C669 301 640 301 611 301C582 301 553 301 523.8 301C494.7 301 465.3 301 436.2 301C407 301 378 301 349 301C320 301 291 301 262 301C233 301 204 301 174.8 301C145.7 301 116.3 301 87.2 301C58 301 29 301 14.5 301L0 301Z"
          fill="#336a96"></path>
    <path d="M0 246L14.5 251C29 256 58 266 87.2 266.7C116.3 267.3 145.7 258.7 174.8 253.8C204 249 233 248 262 247.7C291 247.3 320 247.7 349 251.2C378 254.7 407 261.3 436.2 267.2C465.3 273 494.7 278 523.8 279C553 280 582 277 611 275.3C640 273.7 669 273.3 698 273.3C727 273.3 756 273.7 785.2 275.2C814.3 276.7 843.7 279.3 872.8 281C902 282.7 931 283.3 945.5 283.7L960 284L960 301L945.5 301C931 301 902 301 872.8 301C843.7 301 814.3 301 785.2 301C756 301 727 301 698 301C669 301 640 301 611 301C582 301 553 301 523.8 301C494.7 301 465.3 301 436.2 301C407 301 378 301 349 301C320 301 291 301 262 301C233 301 204 301 174.8 301C145.7 301 116.3 301 87.2 301C58 301 29 301 14.5 301L0 301Z"
          fill="#094074"></path>
</svg>