<svg id="visual" viewBox="0 0 960 300" width="960" height="300" xmlns="http://www.w3.org/2000/svg" xmlns:xlink="http://www.w3.org/1999/xlink" version="1.1"><path d="M0 164L14.5 156.2C29 148.3 58 132.7 87.2 131.5C116.3 130.3 145.7 143.7 174.8 147.3C204 151 233 145 262 140C291 135 320 131 349 132.2C378 133.3 407 139.7 436.2 148C465.3 156.3 494.7 166.7 523.8 170.8C553 175 582 173 611 168C640 163 669 155 698 151.7C727 148.3 756 149.7 785.2 145.2C814.3 140.7 843.7 130.3 872.8 123.7C902 117 931 114 945.5 112.5L960 111L960 0L945.5 0C931 0 902 0 872.8 0C843.7 0 814.3 0 785.2 0C756 0 727 0 698 0C669 0 640 0 611 0C582 0 553 0 523.8 0C494.7 0 465.3 0 436.2 0C407 0 378 0 349 0C320 0 291 0 262 0C233 0 204 0 174.8 0C145.7 0 116.3 0 87.2 0C58 0 29 0 14.5 0L0 0Z" fill="#caf0f8"></path><path d="M0 116L14.5 111C29 106 58 96 87.2 95C116.3 94 145.7 102 174.8 105.3C204 108.7 233 107.3 262 111.5C291 115.7 320 125.3 349 131.3C378 137.3 407 139.7 436.2 136.8C465.3 134 494.7 126 523.8 127.2C553 128.3 582 138.7 611 136C640 133.3 669 117.7 698 109.8C727 102 756 102 785.2 103.8C814.3 105.7 843.7 109.3 872.8 108C902 106.7 931 100.3 945.5 97.2L960 94L960 0L945.5 0C931 0 902 0 872.8 0C843.7 0 814.3 0 785.2 0C756 0 727 0 698 0C669 0 640 0 611 0C582 0 553 0 523.8 0C494.7 0 465.3 0 436.2 0C407 0 378 0 349 0C320 0 291 0 262 0C233 0 204 0 174.8 0C145.7 0 116.3 0 87.2 0C58 0 29 0 14.5 0L0 0Z" fill="#92c3d6"></path><path d="M0 92L14.5 88.5C29 85 58 78 87.2 77C116.3 76 145.7 81 174.8 84.8C204 88.7 233 91.3 262 89C291 86.7 320 79.3 349 81.5C378 83.7 407 95.3 436.2 95.5C465.3 95.7 494.7 84.3 523.8 79.2C553 74 582 75 611 82.3C640 89.7 669 103.3 698 110.2C727 117 756 117 785.2 109C814.3 101 843.7 85 872.8 81.3C902 77.7 931 86.3 945.5 90.7L960 95L960 0L945.5 0C931 0 902 0 872.8 0C843.7 0 814.3 0 785.2 0C756 0 727 0 698 0C669 0 640 0 611 0C582 0 553 0 523.8 0C494.7 0 465.3 0 436.2 0C407 0 378 0 349 0C320 0 291 0 262 0C233 0 204 0 174.8 0C145.7 0 116.3 0 87.2 0C58 0 29 0 14.5 0L0 0Z" fill="#5f96b6"></path><path d="M0 77L14.5 74.8C29 72.7 58 68.3 87.2 69.5C116.3 70.7 145.7 77.3 174.8 76.8C204 76.3 233 68.7 262 64C291 59.3 320 57.7 349 60.7C378 63.7 407 71.3 436.2 76.3C465.3 81.3 494.7 83.7 523.8 84.2C553 84.7 582 83.3 611 76.7C640 70 669 58 698 58.7C727 59.3 756 72.7 785.2 74.5C814.3 76.3 843.7 66.7 872.8 59.7C902 52.7 931 48.3 945.5 46.2L960 44L960 0L945.5 0C931 0 902 0 872.8 0C843.7 0 814.3 0 785.2 0C756 0 727 0 698 0C669 0 640 0 611 0C582 0 553 0 523.8 0C494.7 0 465.3 0 436.2 0C407 0 378 0 349 0C320 0 291 0 262 0C233 0 204 0 174.8 0C145.7 0 116.3 0 87.2 0C58 0 29 0 14.5 0L0 0Z" fill="#336a96"></path><path d="M0 27L14.5 25.5C29 24 58 21 87.2 23.3C116.3 25.7 145.7 33.3 174.8 34.8C204 36.3 233 31.7 262 29.2C291 26.7 320 26.3 349 28.5C378 30.7 407 35.3 436.2 38C465.3 40.7 494.7 41.3 523.8 37.7C553 34 582 26 611 22.2C640 18.3 669 18.7 698 19.8C727 21 756 23 785.2 26.7C814.3 30.3 843.7 35.7 872.8 39.8C902 44 931 47 945.5 48.5L960 50L960 0L945.5 0C931 0 902 0 872.8 0C843.7 0 814.3 0 785.2 0C756 0 727 0 698 0C669 0 640 0 611 0C582 0 553 0 523.8 0C494.7 0 465.3 0 436.2 0C407 0 378 0 349 0C320 0 291 0 262 0C233 0 204 0 174.8 0C145.7 0 116.3 0 87.2 0C58 0 29 0 14.5 0L0 0Z" fill="#094074"></path></svg>