<svg id="visual" viewBox="0 0 960 300" width="960" height="300" xmlns="http://www.w3.org/2000/svg" xmlns:xlink="http://www.w3.org/1999/xlink" version="1.1"><path d="M0 198L22.8 194.5C45.7 191 91.3 184 137 187.2C182.7 190.3 228.3 203.7 274 208.7C319.7 213.7 365.3 210.3 411.2 204.3C457 198.3 503 189.7 548.8 187.8C594.7 186 640.3 191 686 192.8C731.7 194.7 777.3 193.3 823 195.3C868.7 197.3 914.3 202.7 937.2 205.3L960 208L960 301L937.2 301C914.3 301 868.7 301 823 301C777.3 301 731.7 301 686 301C640.3 301 594.7 301 548.8 301C503 301 457 301 411.2 301C365.3 301 319.7 301 274 301C228.3 301 182.7 301 137 301C91.3 301 45.7 301 22.8 301L0 301Z" fill="#caf0f8"></path><path d="M0 229L22.8 233.5C45.7 238 91.3 247 137 244.2C182.7 241.3 228.3 226.7 274 219.3C319.7 212 365.3 212 411.2 216C457 220 503 228 548.8 229.3C594.7 230.7 640.3 225.3 686 225C731.7 224.7 777.3 229.3 823 234.2C868.7 239 914.3 244 937.2 246.5L960 249L960 301L937.2 301C914.3 301 868.7 301 823 301C777.3 301 731.7 301 686 301C640.3 301 594.7 301 548.8 301C503 301 457 301 411.2 301C365.3 301 319.7 301 274 301C228.3 301 182.7 301 137 301C91.3 301 45.7 301 22.8 301L0 301Z" fill="#00b7ff"></path><path d="M0 268L22.8 268.8C45.7 269.7 91.3 271.3 137 268.8C182.7 266.3 228.3 259.7 274 255C319.7 250.3 365.3 247.7 411.2 250.3C457 253 503 261 548.8 261.7C594.7 262.3 640.3 255.7 686 255.2C731.7 254.7 777.3 260.3 823 260.3C868.7 260.3 914.3 254.7 937.2 251.8L960 249L960 301L937.2 301C914.3 301 868.7 301 823 301C777.3 301 731.7 301 686 301C640.3 301 594.7 301 548.8 301C503 301 457 301 411.2 301C365.3 301 319.7 301 274 301C228.3 301 182.7 301 137 301C91.3 301 45.7 301 22.8 301L0 301Z" fill="#0066ff"></path></svg>