<svg id="visual" viewBox="0 0 960 300" width="960" height="300" xmlns="http://www.w3.org/2000/svg" xmlns:xlink="http://www.w3.org/1999/xlink" version="1.1"><path d="M0 118L12.3 121.3C24.7 124.7 49.3 131.3 74 134.7C98.7 138 123.3 138 148 129.7C172.7 121.3 197.3 104.7 221.8 89.8C246.3 75 270.7 62 295.2 58.2C319.7 54.3 344.3 59.7 369 75.5C393.7 91.3 418.3 117.7 443 118.8C467.7 120 492.3 96 517 83C541.7 70 566.3 68 591 67C615.7 66 640.3 66 664.8 71.2C689.3 76.3 713.7 86.7 738.2 91.5C762.7 96.3 787.3 95.7 812 87.2C836.7 78.7 861.3 62.3 886 70.8C910.7 79.3 935.3 112.7 947.7 129.3L960 146L960 0L947.7 0C935.3 0 910.7 0 886 0C861.3 0 836.7 0 812 0C787.3 0 762.7 0 738.2 0C713.7 0 689.3 0 664.8 0C640.3 0 615.7 0 591 0C566.3 0 541.7 0 517 0C492.3 0 467.7 0 443 0C418.3 0 393.7 0 369 0C344.3 0 319.7 0 295.2 0C270.7 0 246.3 0 221.8 0C197.3 0 172.7 0 148 0C123.3 0 98.7 0 74 0C49.3 0 24.7 0 12.3 0L0 0Z" fill="#0066FF"></path></svg>