<?xml version="1.0" standalone="no"?>
<!DOCTYPE svg PUBLIC "-//W3C//DTD SVG 20010904//EN"
 "http://www.w3.org/TR/2001/REC-SVG-20010904/DTD/svg10.dtd">
<svg version="1.0" xmlns="http://www.w3.org/2000/svg"
 width="640.000000pt" height="640.000000pt" viewBox="0 0 640.000000 640.000000"
 preserveAspectRatio="xMidYMid meet">
<metadata>
Created by potrace 1.14, written by Peter Selinger 2001-2017
</metadata>
<g transform="translate(0.000000,640.000000) scale(0.100000,-0.100000)"
fill="#000000" stroke="none">
<path d="M985 4789 c-349 -69 -597 -323 -656 -673 -40 -234 51 -505 226 -681
154 -154 340 -230 565 -230 225 0 411 76 565 230 154 154 230 340 230 565 0
174 -36 297 -125 433 -112 173 -271 287 -480 344 -68 18 -258 25 -325 12z"/>
<path d="M3985 4790 c-107 -17 -238 -59 -340 -110 -71 -35 -228 -140 -535
-360 -458 -328 -527 -380 -601 -464 -36 -39 -542 -752 -736 -1037 l-32 -46 97
-73 c139 -106 237 -140 402 -140 163 0 266 35 387 131 98 77 215 139 313 166
52 14 104 18 260 18 156 0 208 -4 260 -18 98 -27 215 -89 313 -166 121 -96
224 -131 387 -131 157 0 269 36 373 120 133 106 277 174 398 187 33 3 59 9 59
12 -1 3 -250 184 -555 401 -305 217 -555 398 -555 402 0 9 154 120 197 142 18
9 44 16 58 16 14 0 256 -50 538 -110 282 -61 539 -113 572 -116 223 -22 441
136 500 361 42 163 -10 340 -136 460 -99 94 -123 102 -745 236 -524 113 -567
121 -689 124 -71 2 -157 0 -190 -5z"/>
<path d="M1107 2550 c-59 -15 -136 -58 -207 -115 -93 -74 -136 -101 -214 -130
-123 -46 -191 -57 -393 -64 -209 -7 -218 -9 -267 -75 -20 -26 -21 -41 -21
-246 0 -205 1 -220 21 -246 47 -63 63 -69 217 -72 382 -9 723 84 967 264 33
24 65 44 70 44 5 0 37 -20 70 -44 224 -165 561 -266 890 -266 329 0 666 101
890 266 33 24 65 44 70 44 5 0 37 -20 70 -44 224 -165 561 -266 890 -266 329
0 666 101 890 266 33 24 65 44 70 44 5 0 37 -20 70 -44 244 -180 585 -273 967
-264 154 3 170 9 217 72 20 26 21 41 21 246 0 205 -1 220 -21 246 -49 66 -58
68 -267 76 -309 11 -440 53 -612 197 -27 23 -84 59 -124 79 l-75 37 -175 0
c-174 0 -177 0 -240 -30 -36 -16 -101 -58 -144 -93 -105 -83 -145 -105 -252
-141 -213 -70 -468 -67 -677 9 -87 32 -150 69 -233 139 -27 23 -84 59 -124 79
l-75 37 -175 0 c-174 0 -177 0 -240 -30 -36 -16 -101 -58 -144 -93 -105 -83
-145 -105 -252 -141 -213 -70 -468 -67 -677 9 -87 32 -150 69 -233 139 -27 23
-84 59 -124 79 l-75 37 -155 2 c-86 1 -173 -2 -194 -7z"/>
</g>
</svg>
